<?xml version="1.0" standalone="no"?>
<!DOCTYPE svg PUBLIC "-//W3C//DTD SVG 20010904//EN"
 "http://www.w3.org/TR/2001/REC-SVG-20010904/DTD/svg10.dtd">
<svg version="1.0" xmlns="http://www.w3.org/2000/svg"
 width="250px" height="250px" viewBox="0 0 2400.000000 2400.000000"
 preserveAspectRatio="xMidYMid meet">

<g transform="translate(0.000000,2400.000000) scale(0.100000,-0.100000)"
fill="#00000" stroke="none">
<path d="M4592 12955 c-183 -571 -331 -1039 -329 -1041 2 -2 305 -3 674 -2
l670 3 -336 1025 c-185 564 -339 1031 -342 1038 -2 7 -154 -453 -337 -1023z"/>
<path d="M3227 13388 c-8 -24 -281 -793 -606 -1710 -325 -917 -591 -1670 -591
-1673 0 -3 294 -5 653 -5 l652 0 105 353 105 352 596 3 596 2 72 -257 c40
-142 85 -301 100 -353 l27 -95 678 -3 c642 -2 677 -1 672 15 -3 10 -125 353
-270 763 l-264 745 -1002 3 c-947 2 -1001 3 -996 20 3 9 141 435 306 946 165
511 300 931 300 933 0 2 -252 3 -559 3 l-559 0 -15 -42z"/>
<path d="M10345 13401 c-281 -47 -415 -209 -415 -503 l0 -68 -110 0 -110 0 0
-180 0 -180 110 0 110 0 0 -445 0 -445 315 0 315 0 0 445 0 445 130 0 130 0 0
180 0 180 -131 0 -131 0 4 65 c7 117 61 159 196 152 l82 -3 0 162 0 162 -27 6
c-136 28 -378 41 -468 27z"/>
<path d="M8930 12480 l0 -900 300 0 300 0 0 900 0 900 -300 0 -300 0 0 -900z"/>
<path d="M16830 12480 l0 -900 110 0 110 0 0 900 0 900 -110 0 -110 0 0 -900z"/>
<path d="M17500 12480 l0 -900 110 0 110 0 0 900 0 900 -110 0 -110 0 0 -900z"/>
<path d="M7299 13233 c-5 -14 -136 -387 -291 -827 -154 -441 -283 -807 -285
-813 -4 -10 63 -13 315 -13 l320 0 49 178 50 177 275 3 275 2 52 -172 c29 -95
56 -176 60 -181 4 -4 156 -6 338 -5 l330 3 -298 835 -298 835 -440 3 -441 2
-11 -27z m535 -608 c47 -143 86 -266 86 -273 0 -9 -44 -12 -186 -12 -145 0
-185 3 -182 13 3 6 45 132 94 279 49 147 91 264 95 260 4 -4 45 -124 93 -267z"/>
<path d="M11366 12849 c-49 -5 -138 -20 -197 -35 l-109 -26 0 -173 0 -173 63
26 c129 52 187 64 333 69 113 4 152 2 197 -11 73 -21 121 -63 135 -118 6 -23
10 -44 8 -45 -2 -2 -58 2 -125 8 -204 18 -423 -13 -546 -79 -68 -37 -141 -112
-170 -175 -51 -111 -53 -257 -5 -360 91 -193 440 -269 671 -146 36 20 82 57
115 93 l54 59 0 -91 0 -92 281 0 281 0 -4 433 c-4 411 -5 435 -26 498 -54 162
-184 265 -396 314 -141 32 -369 42 -560 24z m434 -738 c0 -83 -44 -183 -95
-217 -60 -39 -165 -36 -210 6 -54 51 -36 154 34 194 44 25 87 33 189 35 74 1
82 -1 82 -18z"/>
<path d="M14631 12814 c-215 -46 -386 -213 -447 -435 -28 -99 -25 -283 4 -379
64 -205 204 -353 397 -417 70 -24 96 -27 210 -27 120 0 178 9 247 35 22 9 26
16 22 42 -2 18 -6 62 -9 98 l-6 65 -47 -22 c-191 -91 -417 -35 -522 128 -51
78 -70 141 -77 250 -14 211 78 393 234 466 52 24 69 27 168 26 83 0 125 -6
173 -21 l62 -21 1 22 c0 11 3 52 8 89 9 81 11 79 -108 101 -100 19 -223 19
-310 0z"/>
<path d="M15704 12810 c-272 -71 -437 -283 -451 -580 -6 -132 12 -224 67 -339
55 -113 162 -222 270 -274 227 -108 490 -80 672 73 148 123 228 300 228 501 0
383 -253 641 -627 638 -52 0 -117 -8 -159 -19z m291 -181 c125 -47 223 -180
251 -342 32 -182 -33 -392 -149 -480 -73 -56 -123 -71 -227 -72 -84 0 -102 3
-152 28 -147 72 -229 227 -229 429 0 213 111 392 274 444 66 20 168 17 232 -7z"/>
<path d="M18505 12820 c-212 -43 -369 -197 -426 -417 -25 -100 -27 -286 -4
-394 55 -247 216 -401 465 -445 155 -27 356 -6 493 51 l37 15 0 110 0 110 -37
-24 c-59 -39 -218 -88 -304 -93 -220 -16 -406 137 -435 357 l-7 50 442 0 c413
0 441 1 441 18 0 9 -5 62 -10 116 -30 309 -156 488 -381 541 -68 16 -207 18
-274 5z m253 -201 c58 -29 102 -72 132 -129 17 -33 40 -118 40 -152 l0 -28
-320 0 -321 0 7 38 c19 105 81 210 150 253 58 36 104 48 180 49 60 0 81 -5
132 -31z"/>
<path d="M19803 12815 c-122 -34 -237 -122 -302 -230 -84 -139 -124 -334 -102
-498 33 -246 148 -409 340 -480 85 -31 262 -30 354 1 80 28 159 78 205 130
l33 37 -4 -130 c-5 -150 -23 -213 -86 -293 -117 -147 -379 -168 -655 -51 -38
16 -71 28 -73 26 -7 -8 -25 -176 -20 -190 6 -16 116 -50 230 -72 103 -20 306
-19 405 1 159 32 290 118 351 233 68 129 65 87 68 829 l4 672 -101 0 -100 0
-1 -92 c0 -76 -2 -90 -12 -74 -55 86 -117 137 -204 168 -76 28 -254 35 -330
13z m291 -186 c105 -39 191 -155 222 -298 16 -77 18 -207 3 -270 -26 -115
-102 -216 -200 -268 -48 -24 -65 -28 -144 -28 -81 0 -95 3 -143 29 -165 92
-241 320 -182 550 39 154 127 262 240 297 50 15 148 9 204 -12z"/>
<path d="M21288 12815 c-293 -74 -459 -353 -420 -705 21 -184 71 -301 171
-400 161 -158 463 -203 750 -111 l86 27 3 111 3 111 -63 -33 c-106 -56 -199
-80 -313 -80 -92 0 -106 3 -167 32 -37 17 -87 50 -112 74 -59 53 -115 164
-123 242 l-6 57 437 0 436 0 0 69 c0 90 -24 225 -55 306 -53 142 -149 240
-277 285 -82 28 -266 36 -350 15z m277 -192 c50 -26 107 -85 133 -138 17 -33
42 -134 42 -167 0 -4 -145 -8 -321 -8 l-322 0 7 43 c17 114 116 247 209 281
61 23 199 16 252 -11z"/>
<path d="M13030 12225 l0 -85 305 0 305 0 0 85 0 85 -305 0 -305 0 0 -85z"/>
</g>
</svg>
